<svg xmlns="http://www.w3.org/2000/svg" width="2732" height="2732" viewBox="0 0 2732 2732">
  <defs>
    <linearGradient id="bg" x1="0" y1="0" x2="2732" y2="2732" gradientUnits="userSpaceOnUse">
      <stop offset="0%" stop-color="#1e293b"/>
      <stop offset="100%" stop-color="#0f172a"/>
    </linearGradient>
    <linearGradient id="bolt" x1="0" y1="0" x2="1" y2="1">
      <stop offset="0%" stop-color="#a855f7"/>
      <stop offset="100%" stop-color="#6d28d9"/>
    </linearGradient>
  </defs>

  <!-- Sfondo pieno -->
  <rect width="2732" height="2732" fill="url(#bg)"/>

  <!-- Bagliore viola -->
  <ellipse cx="1366" cy="1300" rx="700" ry="620"
           fill="rgba(139,92,246,0.10)"/>

  <!-- Fulmine centrato, scala grande per splash -->
  <g transform="translate(1016, 980) scale(15.5)">
    <path fill="url(#bolt)"
          d="M25.946 44.938c-.664.845-2.021.375-2.021-.698V33.937
             a2.26 2.26 0 0 0-2.262-2.262H10.287c-.92 0-1.456-1.04-.92-1.788
             l7.48-10.471c1.07-1.497 0-3.578-1.842-3.578H1.237
             c-.92 0-1.456-1.04-.92-1.788L10.013.474
             c.214-.297.556-.474.92-.474h28.894
             c.92 0 1.456 1.04.92 1.788l-7.48 10.471
             c-1.07 1.498 0 3.579 1.842 3.579h11.377
             c.943 0 1.473 1.088.89 1.83L25.947 44.94z"/>
  </g>

  <!-- Nome app sotto il logo -->
  <text x="1366" y="1780"
        font-family="system-ui, -apple-system, sans-serif"
        font-size="120" font-weight="800" fill="#e2e8f0"
        text-anchor="middle" letter-spacing="4">
    CalcioLab
  </text>
  <text x="1366" y="1880"
        font-family="system-ui, -apple-system, sans-serif"
        font-size="58" font-weight="500" fill="rgba(148,163,184,0.7)"
        text-anchor="middle" letter-spacing="2">
    Coach Platform
  </text>
</svg>
