<svg xmlns="http://www.w3.org/2000/svg" viewBox="0 0 100 100">
  <rect width="100" height="100" rx="20" fill="#0F172A"/>
  <path d="M50 10 L82 21 V47 C82 68 68 83 50 91 C32 83 18 68 18 47 V21 Z"
        fill="none" stroke="#FFFFFF" stroke-width="4" stroke-linejoin="round"/>

  <!-- bar chart -->
  <g fill="#FFFFFF">
    <rect x="28" y="55" width="8" height="16" rx="1.5"/>
    <rect x="40" y="46" width="8" height="25" rx="1.5"/>
    <rect x="52" y="36" width="8" height="35" rx="1.5"/>
  </g>

  <!-- network / share nodes -->
  <g stroke="#FFFFFF" stroke-width="2.5" fill="none">
    <line x1="32" x2="48" y1="26" y2="34"/>
    <line x1="48" x2="64" y1="34" y2="26"/>
  </g>
  <g fill="#FFFFFF">
    <circle cx="32" cy="26" r="4"/>
    <circle cx="48" cy="34" r="4"/>
    <circle cx="64" cy="26" r="4"/>
  </g>

  <!-- soccer ball pattern -->
  <g fill="#FFFFFF">
    <path d="M62 58 L70 63 L68 72 L58 72 L56 63 Z"/>
    <path d="M70 63 L80 66 L80 76 L72 81 L68 72 Z"/>
    <path d="M58 72 L68 72 L72 81 L64 88 L54 82 Z"/>
  </g>
</svg>
